<svg width="29" height="28" viewBox="0 0 29 28" fill="none" xmlns="http://www.w3.org/2000/svg">
<path d="M5.60763 28.0002H22.7257C25.8175 28.0002 28.3333 25.5141 28.3333 22.4586V5.54191C28.3333 2.48641 25.8175 0.000244141 22.7257 0.000244141H5.60763C2.51576 0.000244141 0 2.48641 0 5.54191V22.4586C0 25.5141 2.51576 28.0002 5.60763 28.0002ZM1.77083 5.54191C1.77083 3.45124 3.49208 1.75024 5.60763 1.75024H22.7257C24.8412 1.75024 26.5625 3.45124 26.5625 5.54191V22.4586C26.5625 24.5492 24.8412 26.2502 22.7257 26.2502H5.60763C3.49208 26.2502 1.77083 24.5492 1.77083 22.4586V5.54191Z" fill="white"/>
<path d="M14.1673 21.1517C18.1576 21.1517 21.4041 17.9434 21.4041 14.0001C21.4041 10.0567 18.1576 6.84839 14.1673 6.84839C10.1771 6.84839 6.93054 10.0567 6.93054 14.0001C6.93054 17.9434 10.1771 21.1517 14.1673 21.1517ZM14.1673 8.59839C17.1813 8.59839 19.6333 11.0216 19.6333 14.0001C19.6333 16.9786 17.1813 19.4017 14.1673 19.4017C11.1534 19.4017 8.70137 16.9786 8.70137 14.0001C8.70137 11.0216 11.1534 8.59839 14.1673 8.59839Z" fill="white"/>
<path d="M21.6732 8.58891C22.8372 8.58891 23.7143 7.72558 23.7143 6.58108C23.7143 5.38758 22.7912 4.57324 21.6744 4.57324C20.5103 4.57324 19.6332 5.43658 19.6332 6.58108C19.6332 7.77224 20.5516 8.58891 21.6732 8.58891ZM21.8821 6.38858C22.2552 6.71408 21.404 7.10958 21.404 6.58224C21.404 6.26724 21.8373 6.34891 21.8821 6.38858Z" fill="white"/>
</svg>
